# xmcd
#
# Track frame offsets:
#	150
#	15506
#	27938
#	39376
#	52922
#	65458
#	76600
#	87742
#	103400
#	115260
#	128478
#	140806
#
# Disc length: 2015
#
# Revision: 3
# Processed by: cddbd v1.5.1PL0 Copyright (c) Steve Scherf et al.
# Submitted via: Audio-CD-Archiv 2.10.438
# Normalized: r1:DSETVAR1,TDELIM( - ),TSWAP
#
DISCID=9907dd0c
DTITLE=Various Artist - The Country And The West CD3
DYEAR=1900
DGENRE=country
TTITLE0=Kingston Trio - Tom Dooley
TTITLE1=Porter Wagoner - A satisfied Mind
TTITLE2=Faron Young - Country Girl
TTITLE3=Ferlin Husky - Country Music Is Here To Stay
TTITLE4=Bobby Helms - Fraulein
TTITLE5=Carl Smith - Hey, Joe
TTITLE6=Stonewall Jackson - Slowly
TTITLE7=Melba Montgomery - No Charge
TTITLE8=Sammi Smith - Help Me Make It Through The Night
TTITLE9=Pee Wee King - Slow Poke
TTITLE10=Hank Thompson - The Wild Side Of Life
TTITLE11=Johnny Russell - Jambalaya
EXTD=
EXTT0=
EXTT1=
EXTT2=
EXTT3=
EXTT4=
EXTT5=
EXTT6=
EXTT7=
EXTT8=
EXTT9=
EXTT10=
EXTT11=
PLAYORDER=
